<svg width="39" height="36" viewBox="0 0 39 36" fill="none" xmlns="http://www.w3.org/2000/svg">
<path d="M19.3333 17.6667C16.675 17.6667 14.3993 16.8017 12.5062 15.0719C10.6132 13.342 9.66667 11.2625 9.66667 8.83333C9.66667 6.40417 10.6132 4.32465 12.5062 2.59479C14.3993 0.864931 16.675 0 19.3333 0C21.9917 0 24.2674 0.864931 26.1604 2.59479C28.0535 4.32465 29 6.40417 29 8.83333C29 11.2625 28.0535 13.342 26.1604 15.0719C24.2674 16.8017 21.9917 17.6667 19.3333 17.6667ZM0 35.3333V29.15C0 27.8986 0.35243 26.7484 1.05729 25.6995C1.76215 24.6505 2.69861 23.85 3.86667 23.2979C6.36389 22.1569 8.90139 21.3012 11.4792 20.7307C14.0569 20.1602 16.675 19.875 19.3333 19.875C21.9917 19.875 24.6097 20.1602 27.1875 20.7307C29.7653 21.3012 32.3028 22.1569 34.8 23.2979C35.9681 23.85 36.9045 24.6505 37.6094 25.6995C38.3142 26.7484 38.6667 27.8986 38.6667 29.15V35.3333H0ZM4.83333 30.9167H33.8333V29.15C33.8333 28.7451 33.7226 28.3771 33.501 28.0458C33.2795 27.7146 32.9875 27.4569 32.625 27.2729C30.45 26.2792 28.2549 25.5339 26.0396 25.037C23.8243 24.5401 21.5889 24.2917 19.3333 24.2917C17.0778 24.2917 14.8424 24.5401 12.6271 25.037C10.4118 25.5339 8.21667 26.2792 6.04167 27.2729C5.67917 27.4569 5.38715 27.7146 5.16562 28.0458C4.9441 28.3771 4.83333 28.7451 4.83333 29.15V30.9167ZM19.3333 13.25C20.6625 13.25 21.8003 12.8175 22.7469 11.9526C23.6934 11.0877 24.1667 10.0479 24.1667 8.83333C24.1667 7.61875 23.6934 6.57899 22.7469 5.71406C21.8003 4.84913 20.6625 4.41667 19.3333 4.41667C18.0042 4.41667 16.8663 4.84913 15.9198 5.71406C14.9733 6.57899 14.5 7.61875 14.5 8.83333C14.5 10.0479 14.9733 11.0877 15.9198 11.9526C16.8663 12.8175 18.0042 13.25 19.3333 13.25Z" fill="#FCFAF6"/>
</svg>
