<svg width="56" height="48" viewBox="0 0 56 48" fill="none" xmlns="http://www.w3.org/2000/svg">
<path d="M2 2H11.3333L17.5867 29.8958C17.8 30.855 18.3845 31.7166 19.2376 32.3298C20.0908 32.943 21.1583 33.2687 22.2533 33.25H44.9333C46.0284 33.2687 47.0959 32.943 47.9491 32.3298C48.8022 31.7166 49.3866 30.855 49.6 29.8958L53.3333 12.4167H13.6667M23 43.6667C23 44.8173 21.9553 45.75 20.6667 45.75C19.378 45.75 18.3333 44.8173 18.3333 43.6667C18.3333 42.5161 19.378 41.5833 20.6667 41.5833C21.9553 41.5833 23 42.5161 23 43.6667ZM48.6667 43.6667C48.6667 44.8173 47.622 45.75 46.3333 45.75C45.0447 45.75 44 44.8173 44 43.6667C44 42.5161 45.0447 41.5833 46.3333 41.5833C47.622 41.5833 48.6667 42.5161 48.6667 43.6667Z" stroke="#FCFAF6" stroke-width="4" stroke-linecap="round" stroke-linejoin="round"/>
</svg>
